<svg fill="none" height="32" viewBox="0 0 32 32" width="32" xmlns="http://www.w3.org/2000/svg"><path d="m29.0001 22.2536-5.246-5.246-14.75398-14.75399c-.5-.5-1-.254-1.5.25l-4 4c-.5.5-.25.75.5 1s1 .5 1 2.49999c0 .5 1.5 1 1.5 1 .21062.0727.39464.2068.52832.385.13368.1783.21089.3925.22168.615v1.25s.035.734 1.75 1.5c.14038.072.26002.1787.34753.3099.08752.1313.14001.2828.15247.4401 0 2 .49998 2.25.49998 2.25l1.5.75s.5.25.5.5c0 1.5 0 2.25.5 2.5 0 0 2 .754 2 1.254v2.25c0 .5.5.75 1 .75h2.75v.25l3.75 3.75c.0602.0622.1273.1172.2.164.1097.0681.2356.1056.3647.1086s.2566-.0287.3693-.0917c.2096-.112.3994-.2575.562-.4309l5.5-5.5c.1333-.1039.2412-.2367.3155-.3885.0744-.1518.1132-.3186.1136-.4876s-.0377-.3358-.1114-.4879c-.0736-.1521-.1809-.2855-.3137-.39zm-16.605-5.5391-.855-.427c-.0286-.2603-.0419-.522-.04-.7839-.0019-.3684-.0768-.7328-.2203-1.0721-.1434-.3394-.3527-.6469-.6157-.9049-.2236-.2278-.483-.4172-.76798-.561l-.646-.338v-.624c.00023-.4438-.09837-.8821-.28864-1.2831-.19026-.4009-.4674-.75441-.81134-1.03489-.34255-.29231-.74299-.50902-1.17504-.63598-.01624-.61241-.14434-1.21677-.378-1.78308-.10376-.22965-.23647-.44506-.39495-.64099l2.16796-2.16895 12.77999 12.78099c-.916.9-2.155 2.266-2.155 2.266s-.754.75-.75 1.25v3h-1.75v-1c-.0049-.5274-.1894-1.0375-.523-1.446-.1712-.2105-.3684-.3983-.587-.559-.4325-.3078-.8956-.5702-1.382-.783 0-.1-.008-.11-.008-.962-.0042-.5224-.1862-1.0278-.516-1.433-.1562-.1917-.3355-.3633-.534-.511-.1752-.1297-.3608-.2448-.555-.344zm13.416 7.4711-2.122 2.121c-.2829.2732-.6618.4244-1.0551.421s-.7695-.1612-1.0476-.4393-.4359-.6543-.4393-1.0476.1478-.7722.421-1.0551l2.121-2.121c.1393-.1393.3046-.2498.4866-.3253.182-.0754.3771-.1143.5741-.1144.197 0 .392.0388.5741.1142.182.0753.3474.1858.4867.3251.1393.1392.2499.3045.3253.4865.0755.182.1143.377.1143.574.0001.197-.0387.3921-.114.5741-.0754.182-.1858.3475-.3251.4868z" fill="#212121"/></svg>