<svg fill="none" height="24" viewBox="0 0 24 24" width="24" xmlns="http://www.w3.org/2000/svg"><path clip-rule="evenodd" d="m1 6h2.00001s.00652.15641.02533.26173c.02137.11969.06018.26852.12971.43538.1417.3401.39954.72718.84526 1.08376.87766.70213 2.39285 1.21913 4.99969 1.21913h4.2192l1.5 6h-.7192c-1.6569 0-3 1.3431-3 3v2c0 1.6569 1.3431 3 3 3h7c1.6569 0 3-1.3431 3-3v-2.5616c0-1.2719-.9739-2.3164-2.2167-2.4285l-1.5025-6.0099h.7192c1.6569 0 3-1.34315 3-3v-2c0-1.65685-1.3431-3-3-3h-12c-2.60684 0-4.12203.517-4.99969 1.21913-.44572.35658-.70356.74366-.84526 1.08375-.06953.16687-.10834.3157-.12971.43539-.01555.08706-.02143.1736-.02533.26173h-2.00001c-.552285 0-1 .44772-1 1s.447715 1 1 1zm4-.07505.0012.00293c.01455.03491.06921.14783.24849.29125.31552.25241 1.07086.63777 2.75031.7495v-3.93726c-1.67945.11173-2.43479.49709-2.75031.7495-.17928.14342-.23394.25634-.24849.29125l-.0012.00293zm5-2.92495v4h3.2192c.9178 0 1.7177.62459 1.9403 1.51493l1.5 5.99997c.3156 1.2623-.6391 2.4851-1.9403 2.4851h-.7192c-.5523 0-1 .4477-1 1v2c0 .5523.4477 1 1 1h7c.5523 0 1-.4477 1-1v-2.5616c0-.2421-.1963-.4384-.4384-.4384-.7889 0-1.4766-.5369-1.6679-1.3022l-1.5532-6.21273c-.3156-1.26229.6391-2.48507 1.9403-2.48507h.7192c.5523 0 1-.44772 1-1v-2c0-.55228-.4477-1-1-1z" fill="#0f0f0f" fill-rule="evenodd"/></svg>