<svg enable-background="new 0 0 24 24" height="24" viewBox="0 0 24 24" width="24" xmlns="http://www.w3.org/2000/svg"><path d="m0 0h24v24h-24z" fill="none"/><path d="m20 15h-2v-2h2c.55 0 1 .45 1 1 0 .55-.45 1-1 1z"/><path d="m20 19h-2v-2h2c.55 0 1 .45 1 1 0 .55-.45 1-1 1z"/><path d="m14 12c-1.1 0-2 .9-2 2h-2v4h2c0 1.1.9 2 2 2h3v-8z"/><path d="m4 5c0 .55.45 1 1 1h3.5c.83 0 1.5.67 1.5 1.5 0 .83-.67 1.5-1.5 1.5h-1.5c-2.21 0-4 1.79-4 4 0 2.21 1.79 4 4 4h2v-2h-2c-1.1 0-2-.9-2-2 0-1.1.9-2 2-2h1.5c1.93 0 3.5-1.57 3.5-3.5 0-1.93-1.57-3.5-3.5-3.5h-3.5c-.55 0-1 .45-1 1z"/></svg>