<svg enable-background="new 0 0 24 24" height="24" viewBox="0 0 24 24" width="24" xmlns="http://www.w3.org/2000/svg"><path d="m0 0h24v24h-24z" fill="none"/><path d="m19.28 4.93-2.12-2.12c-.78-.78-2.05-.78-2.83 0l-2.83 2.83 2.12 2.12 2.12-2.12 3.54 3.54c1.17-1.18 1.17-3.08 0-4.25z"/><path d="m5.49 13.77c.59.59 1.54.59 2.12 0l2.47-2.47-2.12-2.13-2.47 2.47c-.59.59-.59 1.54 0 2.13z"/><path d="m15.04 7.76-.71.71-.71.71-3.18-3.18c-.59-.6-1.54-.6-2.12-.01-.59.59-.59 1.54 0 2.12l3.18 3.18-.71.71-6.36 6.36c-.78.78-.78 2.05 0 2.83s2.05.78 2.83 0l9.19-9.19c.39.39 1.02.39 1.41 0s.39-1.02 0-1.41z"/></svg>