<svg viewBox="0 0 32 32" xmlns="http://www.w3.org/2000/svg"><path d="m5.25 2.75-.5625.53125-1.40625 1.40625-.53125.5625.40625.65625 2.09375 3.5.28125.5h2.9375l4 3.96875c-3.574219 3.589844-8.121094 8.152344-8.28125 8.3125-1.566406 1.566406-1.570312 4.132813.03125 5.625 1.5625 1.542969 4.109375 1.582031 5.59375 0l.03125-.03125 6.15625-6.1875 6.1875 6.21875.09375.0625c1.570313 1.480469 4.066406 1.5 5.53125-.0625v-.03125h.03125c1.53125-1.566406 1.546875-4.113281-.03125-5.59375l-.03125-.03125-5.21875-5.1875c3.511719-.328125 6.261719-3.292969 6.3125-6.875h.03125c.003906-.019531 0-.042969 0-.0625 0-.011719 0-.019531 0-.03125.097656-1.15625-.152344-2.261719-.75-3.21875l-.6875-1.0625-4.65625 4.65625-1.40625-1.46875 4.75-4.75-1.375-.5625c-.804687-.34375-1.734375-.59375-2.78125-.59375-3.84375 0-7 3.15625-7 7 0 .417969.089844.78125.15625 1.15625-.4375.4375-.765625.796875-1.28125 1.3125l-3.96875-3.96875v-2.96875l-.5-.28125-3.5-2.09375zm16.75 2.25c.140625 0 .238281.082031.375.09375l-3.78125 3.78125.6875.71875 2.8125 2.90625.6875.71875 3.96875-3.96875c.019531.230469.183594.398438.15625.65625v.09375c0 2.753906-2.246094 5-5 5-.367187 0-.8125-.085937-1.3125-.1875l-.53125-.09375-.375.375-11.28125 11.3125h-.03125v.03125c-.710937.777344-1.953125.796875-2.78125-.03125v-.03125h-.03125c-.777344-.710937-.796875-1.953125.03125-2.78125.378906-.378906 7.71875-7.78125 11.3125-11.375l.40625-.40625-.15625-.5625c-.082031-.324219-.15625-.882812-.15625-1.25 0-2.753906 2.246094-5 5-5zm-16.4375.25 2.34375 1.4375v1l-.21875.21875h-1l-1.4375-2.34375zm14.625 12.15625 6.21875 6.1875v.03125h.03125c.777344.710938.796875 1.953125-.03125 2.78125h-.03125v.03125c-.710937.777344-1.953125.796875-2.78125-.03125l-6.1875-6.21875z"/></svg>